<svg width="32" height="32" viewBox="0 0 32 32" fill="none" xmlns="http://www.w3.org/2000/svg">
<g clip-path="url(#clip0_128_1053)">
<path d="M16 24.6667L12 22.6667L4 26.6667V9.33334L12 5.33334L20 9.33334L28 5.33334V15.3333" stroke="#693CEA" stroke-width="2" stroke-linecap="round" stroke-linejoin="round"/>
<path d="M12 5.33334V22.6667" stroke="#693CEA" stroke-width="2" stroke-linecap="round" stroke-linejoin="round"/>
<path d="M20 9.33334V16.6667" stroke="#693CEA" stroke-width="2" stroke-linecap="round" stroke-linejoin="round"/>
<path opacity="0.4" d="M28.1613 26.828C28.7208 26.2686 29.1019 25.5559 29.2563 24.78C29.4107 24.004 29.3316 23.1997 29.0289 22.4687C28.7262 21.7377 28.2135 21.1129 27.5557 20.6734C26.8978 20.2338 26.1244 19.9991 25.3333 19.9991C24.5421 19.9991 23.7687 20.2338 23.1108 20.6734C22.453 21.1129 21.9403 21.7377 21.6376 22.4687C21.3349 23.1997 21.2558 24.004 21.4102 24.78C21.5646 25.5559 21.9457 26.2686 22.5053 26.828C23.0626 27.3867 24.0053 28.2213 25.3333 29.3333C26.7346 28.1467 27.6786 27.312 28.1613 26.828Z" stroke="#693CEA" stroke-width="2" stroke-linecap="round" stroke-linejoin="round"/>
<path opacity="0.4" d="M25.3333 24V24.0133" stroke="#693CEA" stroke-width="2" stroke-linecap="round" stroke-linejoin="round"/>
</g>
<defs>
<clipPath id="clip0_128_1053">
<rect width="32" height="32" fill="white"/>
</clipPath>
</defs>
</svg>
