<svg width="101" height="29" viewBox="0 0 101 29" fill="none" xmlns="http://www.w3.org/2000/svg">
<g id="logo-theme-light">
<g id="Union">
<path d="M0 5.3108C0 2.37772 2.3901 0 5.33843 0H8.73562V8.49728H0V5.3108Z" fill="#693CEA"/>
<path d="M14.9476 0H5.76551V8.49728H14.9476C17.3063 8.49728 19.2184 6.5951 19.2184 4.24864C19.2184 1.90218 17.3063 0 14.9476 0Z" fill="#693CEA"/>
</g>
<path id="Vector 2" d="M13.8799 8.49728H0V18.0567C0 20.9898 2.3901 23.3675 5.33843 23.3675H13.8799C16.8283 23.3675 19.2184 20.9898 19.2184 18.0567V13.8081C19.2184 10.875 16.8283 8.49728 13.8799 8.49728Z" fill="#906DF2"/>
<g id="bizzgu">
<path d="M23.7689 23.3675V4.94347L26.4146 4.44339V11.234C27.5434 10.2513 28.9103 9.76004 30.5154 9.76004C31.7853 9.76004 32.9318 10.0671 33.9548 10.6812C34.9955 11.2954 35.8156 12.1201 36.4153 13.1553C37.015 14.1906 37.3149 15.3574 37.3149 16.6559C37.3149 17.9544 37.0062 19.13 36.3889 20.1828C35.7892 21.218 34.969 22.0427 33.9284 22.6569C32.9054 23.271 31.7501 23.5781 30.4625 23.5781C29.7217 23.5781 28.9985 23.464 28.293 23.2359C27.6051 22.9903 26.9702 22.6481 26.3881 22.2094V23.3675H23.7689ZM30.1715 21.2882C31.0357 21.2882 31.803 21.0864 32.4732 20.6829C33.1611 20.2793 33.7079 19.7353 34.1136 19.051C34.5192 18.3492 34.7221 17.5595 34.7221 16.6822C34.7221 15.8049 34.5192 15.0153 34.1136 14.3134C33.7079 13.6115 33.1611 13.0588 32.4732 12.6552C31.803 12.2517 31.0357 12.0499 30.1715 12.0499C29.413 12.0499 28.7075 12.1903 28.0549 12.471C27.4023 12.7518 26.8555 13.1466 26.4146 13.6554V19.709C26.8555 20.2003 27.4023 20.5864 28.0549 20.8671C28.7251 21.1479 29.4307 21.2882 30.1715 21.2882Z" fill="#1E1C23"/>
<path d="M40.3686 23.3675V9.9706H43.0143V23.3675H40.3686ZM41.6914 7.81236C41.2505 7.81236 40.8713 7.65444 40.5538 7.3386C40.2363 7.00521 40.0775 6.61918 40.0775 6.18051C40.0775 5.7243 40.2363 5.34705 40.5538 5.04875C40.8713 4.73291 41.2505 4.57499 41.6914 4.57499C42.15 4.57499 42.538 4.73291 42.8555 5.04875C43.173 5.34705 43.3318 5.7243 43.3318 6.18051C43.3318 6.61918 43.173 7.00521 42.8555 7.3386C42.538 7.65444 42.15 7.81236 41.6914 7.81236Z" fill="#1E1C23"/>
<path d="M45.8656 23.3675V21.4198L53.4324 12.2341H45.945V9.9706H56.7395V11.892L49.1728 21.104H56.8718V23.3675H45.8656Z" fill="#1E1C23"/>
<path d="M59.1066 23.3675V21.4198L66.6733 12.2341H59.1859V9.9706H69.9804V11.892L62.4137 21.104H70.1127V23.3675H59.1066Z" fill="#1E1C23"/>
<path d="M79.3174 29C78.3297 29 77.3684 28.8859 76.4336 28.6578C75.4988 28.4297 74.6522 28.1051 73.8938 27.684L74.8991 25.631C75.6928 26.0346 76.4336 26.3241 77.1215 26.4996C77.827 26.6926 78.5326 26.7891 79.2381 26.7891C80.4198 26.7891 81.3105 26.5171 81.9102 25.9732C82.5276 25.4292 82.8362 24.6309 82.8362 23.5781V22.0515C81.6545 22.9815 80.3052 23.4465 78.7883 23.4465C77.5536 23.4465 76.416 23.1482 75.3753 22.5516C74.3523 21.9375 73.541 21.1128 72.9413 20.0775C72.3416 19.0247 72.0418 17.8666 72.0418 16.6033C72.0418 15.3223 72.3416 14.1643 72.9413 13.129C73.5586 12.0762 74.3788 11.2515 75.4018 10.6549C76.4424 10.0408 77.6066 9.73372 78.8941 9.73372C79.6173 9.73372 80.314 9.85655 80.9842 10.1022C81.6721 10.3303 82.2983 10.6637 82.8627 11.1024V9.9706H85.4819V23.5781C85.4819 25.3152 84.944 26.6487 83.868 27.5787C82.8098 28.5262 81.2929 29 79.3174 29ZM79.1322 21.1829C79.9083 21.1829 80.6138 21.0513 81.2488 20.7881C81.8838 20.5074 82.4129 20.1126 82.8362 19.6037V13.6028C82.4129 13.1115 81.875 12.7254 81.2224 12.4447C80.5874 12.1639 79.8907 12.0236 79.1322 12.0236C78.2856 12.0236 77.5184 12.2254 76.8305 12.6289C76.1602 13.0325 75.6223 13.5852 75.2166 14.2871C74.8286 14.9714 74.6345 15.7435 74.6345 16.6033C74.6345 17.463 74.8286 18.2439 75.2166 18.9457C75.6223 19.6301 76.1602 20.174 76.8305 20.5776C77.5184 20.9812 78.2856 21.1829 79.1322 21.1829Z" fill="#1E1C23"/>
<path d="M94.3328 23.6307C93.2922 23.6307 92.375 23.4114 91.5813 22.9727C90.7876 22.534 90.1703 21.9199 89.7293 21.1303C89.2884 20.3232 89.0679 19.402 89.0679 18.3667V9.9706H91.6871V17.9193C91.6871 18.9721 91.987 19.8055 92.5867 20.4197C93.204 21.0338 94.0242 21.3409 95.0472 21.3409C95.7703 21.3409 96.4141 21.1917 96.9785 20.8934C97.543 20.5776 98.0015 20.1389 98.3543 19.5774V9.9706H101V23.3675H98.3543V21.9989C97.3137 23.0868 95.9732 23.6307 94.3328 23.6307Z" fill="#1E1C23"/>
</g>
<g id="Ellipse 1">
<mask id="path-4-inside-1_1_1071" fill="white">
<path d="M3.63013 12.7459C3.63013 14.3234 4.26006 15.8364 5.38135 16.9518C6.50264 18.0673 8.02343 18.694 9.60917 18.694C11.1949 18.694 12.7157 18.0673 13.837 16.9518C14.9583 15.8364 15.5882 14.3234 15.5882 12.7459L13.4956 12.7459C13.4956 13.7713 13.0861 14.7547 12.3573 15.4798C11.6284 16.2048 10.6399 16.6122 9.60917 16.6122C8.57844 16.6122 7.58993 16.2048 6.86109 15.4798C6.13225 14.7547 5.72279 13.7713 5.72279 12.7459L3.63013 12.7459Z"/>
</mask>
<path d="M3.63013 12.7459L3.63013 2.74591L-6.36987 2.74591L-6.36987 12.7459L3.63013 12.7459ZM15.5882 12.7459L25.5882 12.7459L25.5882 2.74592L15.5882 2.74591L15.5882 12.7459ZM13.4956 12.7459L13.4956 2.74591L3.49556 2.74591L3.49555 12.7459L13.4956 12.7459ZM5.72279 12.7459L15.7228 12.7459L15.7228 2.74591L5.72279 2.74591L5.72279 12.7459ZM-6.36987 12.7459C-6.36987 16.9924 -4.67369 21.0544 -1.67135 24.0412L12.434 9.86245C13.1938 10.6183 13.6301 11.6545 13.6301 12.7459L-6.36987 12.7459ZM-1.67135 24.0412C1.32925 27.0263 5.38797 28.694 9.60917 28.694L9.60917 8.69401C10.6589 8.69401 11.676 9.10836 12.434 9.86245L-1.67135 24.0412ZM9.60917 28.694C13.8304 28.694 17.8891 27.0263 20.8897 24.0412L6.7843 9.86245C7.54232 9.10836 8.55945 8.694 9.60917 8.69401L9.60917 28.694ZM20.8897 24.0412C23.892 21.0544 25.5882 16.9924 25.5882 12.7459L5.58822 12.7459C5.58822 11.6545 6.02453 10.6183 6.7843 9.86245L20.8897 24.0412ZM15.5882 2.74591H13.4956L13.4956 22.7459H15.5882L15.5882 2.74591ZM3.49555 12.7459C3.49555 11.1023 4.15234 9.53663 5.30457 8.39038L19.41 22.5692C22.0198 19.9728 23.4956 16.4403 23.4956 12.7459L3.49555 12.7459ZM5.30457 8.39038C6.45504 7.24586 8.00444 6.61217 9.60917 6.61217L9.60917 26.6122C13.2754 26.6122 16.8018 25.1638 19.41 22.5692L5.30457 8.39038ZM9.60917 6.61217C11.2139 6.61217 12.7633 7.24586 13.9138 8.39038L-0.191607 22.5692C2.41654 25.1638 5.94298 26.6122 9.60917 26.6122L9.60917 6.61217ZM13.9138 8.39038C15.066 9.53663 15.7228 11.1023 15.7228 12.7459L-4.27721 12.7459C-4.27721 16.4403 -2.8015 19.9728 -0.191607 22.5692L13.9138 8.39038ZM5.72279 2.74591H3.63013L3.63013 22.7459H5.72279L5.72279 2.74591Z" fill="white" mask="url(#path-4-inside-1_1_1071)"/>
</g>
</g>
</svg>
