<svg width="90" height="90" viewBox="0 0 90 90" fill="none" xmlns="http://www.w3.org/2000/svg">
<path d="M13.9092 24.2727C13.9092 14.7333 21.6424 7 31.1819 7H42.1737V34.6364H13.9092V24.2727Z" fill="#693CEA"/>
<path d="M62.2728 7H32.5637V34.6364H62.2728C69.9044 34.6364 76.091 28.4498 76.091 20.8182C76.091 13.1866 69.9044 7 62.2728 7Z" fill="#693CEA"/>
<path d="M58.8183 34.6364H13.9092V65.7273C13.9092 75.2668 21.6424 83 31.1819 83H58.8183C68.3577 83 76.091 75.2668 76.091 65.7273V51.9091C76.091 42.3696 68.3577 34.6364 58.8183 34.6364Z" fill="#906DF2"/>
<mask id="path-3-inside-1_2_27" fill="white">
<path d="M25.6547 48.4546C25.6547 53.5853 27.6928 58.5059 31.3208 62.1339C34.9488 65.7618 39.8694 67.8 45.0001 67.8C50.1309 67.8 55.0514 65.7618 58.6794 62.1339C62.3074 58.5059 64.3456 53.5853 64.3456 48.4546L57.5747 48.4546C57.5747 51.7895 56.2499 54.9879 53.8917 57.3461C51.5335 59.7043 48.3351 61.0291 45.0001 61.0291C41.6651 61.0291 38.4668 59.7043 36.1086 57.3461C33.7504 54.9879 32.4256 51.7895 32.4256 48.4546L25.6547 48.4546Z"/>
</mask>
<path d="M25.6547 48.4546L25.6547 38.4546L15.6547 38.4546L15.6547 48.4546L25.6547 48.4546ZM64.3456 48.4546L74.3456 48.4546L74.3456 38.4546L64.3456 38.4546L64.3456 48.4546ZM57.5747 48.4546L57.5747 38.4546L47.5747 38.4546L47.5747 48.4546L57.5747 48.4546ZM32.4256 48.4546L42.4256 48.4546V38.4546L32.4256 38.4546L32.4256 48.4546ZM15.6547 48.4546C15.6547 56.2375 18.7464 63.7016 24.2497 69.2049L38.3919 55.0628C36.6393 53.3102 35.6547 50.9331 35.6547 48.4546L15.6547 48.4546ZM24.2497 69.2049C29.7531 74.7083 37.2172 77.8 45.0001 77.8L45.0001 57.8C42.5216 57.8 40.1445 56.8154 38.3919 55.0628L24.2497 69.2049ZM45.0001 77.8C52.783 77.8 60.2472 74.7083 65.7505 69.2049L51.6084 55.0628C49.8557 56.8154 47.4787 57.8 45.0001 57.8L45.0001 77.8ZM65.7505 69.2049C71.2538 63.7016 74.3456 56.2375 74.3456 48.4546L54.3456 48.4546C54.3456 50.9331 53.361 53.3102 51.6084 55.0628L65.7505 69.2049ZM64.3456 38.4546L57.5747 38.4546L57.5747 58.4546L64.3456 58.4546L64.3456 38.4546ZM47.5747 48.4546C47.5747 49.1374 47.3034 49.7922 46.8206 50.275L60.9627 64.4172C65.1963 60.1836 67.5747 54.4417 67.5747 48.4546L47.5747 48.4546ZM46.8206 50.275C46.3378 50.7579 45.6829 51.0291 45.0001 51.0291L45.0001 71.0291C50.9873 71.0291 56.7292 68.6507 60.9627 64.4172L46.8206 50.275ZM45.0001 51.0291C44.3173 51.0291 43.6625 50.7579 43.1796 50.275L29.0375 64.4172C33.2711 68.6507 39.013 71.0291 45.0001 71.0291L45.0001 51.0291ZM43.1796 50.275C42.6968 49.7922 42.4256 49.1374 42.4256 48.4546L22.4256 48.4546C22.4256 54.4417 24.804 60.1836 29.0375 64.4172L43.1796 50.275ZM32.4256 38.4546L25.6547 38.4546L25.6547 58.4546L32.4256 58.4546L32.4256 38.4546Z" fill="white" mask="url(#path-3-inside-1_2_27)"/>
</svg>
