<svg width="70" height="70" viewBox="0 0 70 70" fill="none" xmlns="http://www.w3.org/2000/svg">
<path opacity="0.2" d="M59.0625 19.6875V56.875C59.0625 57.4552 58.832 58.0116 58.4218 58.4218C58.0116 58.832 57.4552 59.0625 56.875 59.0625H13.125C12.5448 59.0625 11.9884 58.832 11.5782 58.4218C11.168 58.0116 10.9375 57.4552 10.9375 56.875V19.6875H59.0625Z" fill="#693CEA"/>
<path d="M61.0203 18.7086L56.6453 9.95859C56.4635 9.59516 56.1839 9.28958 55.8381 9.07611C55.4923 8.86263 55.0939 8.74971 54.6875 8.75H15.3125C14.9061 8.74971 14.5077 8.86263 14.1619 9.07611C13.8161 9.28958 13.5365 9.59516 13.3547 9.95859L8.97969 18.7086C8.82891 19.0129 8.75031 19.3479 8.75 19.6875V56.875C8.75 58.0353 9.21094 59.1481 10.0314 59.9686C10.8519 60.7891 11.9647 61.25 13.125 61.25H56.875C58.0353 61.25 59.1481 60.7891 59.9686 59.9686C60.7891 59.1481 61.25 58.0353 61.25 56.875V19.6875C61.2497 19.3479 61.1711 19.0129 61.0203 18.7086ZM16.6633 13.125H53.3367L55.5242 17.5H14.4758L16.6633 13.125ZM56.875 56.875H13.125V21.875H56.875V56.875ZM45.2977 40.0148C45.501 40.218 45.6624 40.4593 45.7725 40.7248C45.8826 40.9904 45.9392 41.275 45.9392 41.5625C45.9392 41.85 45.8826 42.1346 45.7725 42.4002C45.6624 42.6657 45.501 42.907 45.2977 43.1102L36.5477 51.8602C36.3445 52.0635 36.1032 52.2249 35.8377 52.335C35.5721 52.4451 35.2875 52.5017 35 52.5017C34.7125 52.5017 34.4279 52.4451 34.1623 52.335C33.8968 52.2249 33.6555 52.0635 33.4523 51.8602L24.7023 43.1102C24.2919 42.6997 24.0613 42.143 24.0613 41.5625C24.0613 40.982 24.2919 40.4253 24.7023 40.0148C25.1128 39.6044 25.6695 39.3738 26.25 39.3738C26.8305 39.3738 27.3872 39.6044 27.7977 40.0148L32.8125 45.0324V28.4375C32.8125 27.8573 33.043 27.3009 33.4532 26.8907C33.8634 26.4805 34.4198 26.25 35 26.25C35.5802 26.25 36.1366 26.4805 36.5468 26.8907C36.957 27.3009 37.1875 27.8573 37.1875 28.4375V45.0324L42.2023 40.0148C42.4055 39.8115 42.6468 39.6501 42.9123 39.54C43.1779 39.4299 43.4625 39.3733 43.75 39.3733C44.0375 39.3733 44.3221 39.4299 44.5877 39.54C44.8532 39.6501 45.0945 39.8115 45.2977 40.0148Z" fill="#693CEA"/>
</svg>
