<svg width="15" height="15" viewBox="0 0 15 15" fill="none" xmlns="http://www.w3.org/2000/svg">
<path d="M13.025 2.88126C12.7057 2.56189 12.3267 2.30854 11.9095 2.13569C11.4924 1.96284 11.0453 1.87387 10.5937 1.87387C10.1421 1.87387 9.69502 1.96284 9.27786 2.13569C8.86069 2.30854 8.48168 2.56189 8.16245 2.88126L7.49995 3.54376L6.83745 2.88126C6.19264 2.23645 5.3181 1.87421 4.4062 1.87421C3.49431 1.87421 2.61976 2.23645 1.97495 2.88126C1.33014 3.52607 0.967896 4.40062 0.967896 5.31251C0.967896 6.22441 1.33014 7.09895 1.97495 7.74376L2.63745 8.40626L7.49995 13.2688L12.3625 8.40626L13.025 7.74376C13.3443 7.42454 13.5977 7.04552 13.7705 6.62836C13.9434 6.2112 14.0323 5.76407 14.0323 5.31251C14.0323 4.86096 13.9434 4.41383 13.7705 3.99666C13.5977 3.5795 13.3443 3.20048 13.025 2.88126Z" stroke="#693CEA" stroke-width="1.5" stroke-linecap="round" stroke-linejoin="round"/>
</svg>
