<svg width="70" height="70" viewBox="0 0 70 70" fill="none" xmlns="http://www.w3.org/2000/svg">
<path opacity="0.2" d="M35 35.298V63.4375C34.6326 63.436 34.2715 63.3419 33.95 63.164L9.8875 49.9953C9.54391 49.8073 9.25709 49.5305 9.057 49.1938C8.85691 48.8571 8.75089 48.4729 8.75 48.0812V21.9297C8.7501 21.6215 8.81533 21.3168 8.94141 21.0355L35 35.298Z" fill="#693CEA"/>
<path d="M61.1625 18.0879L37.1 4.92189C36.4571 4.56665 35.7345 4.38031 35 4.38031C34.2655 4.38031 33.5429 4.56665 32.9 4.92189L8.8375 18.0934C8.15032 18.4694 7.57669 19.023 7.17651 19.6963C6.77633 20.3697 6.56428 21.1382 6.5625 21.9215V48.0731C6.56428 48.8564 6.77633 49.6249 7.17651 50.2982C7.57669 50.9716 8.15032 51.5252 8.8375 51.9012L32.9 65.0727C33.5429 65.4279 34.2655 65.6143 35 65.6143C35.7345 65.6143 36.4571 65.4279 37.1 65.0727L61.1625 51.9012C61.8497 51.5252 62.4233 50.9716 62.8235 50.2982C63.2237 49.6249 63.4357 48.8564 63.4375 48.0731V21.9242C63.4372 21.1395 63.2258 20.3693 62.8256 19.6944C62.4253 19.0194 61.8509 18.4646 61.1625 18.0879ZM35 8.75002L56.968 20.7813L35 32.8125L13.032 20.7813L35 8.75002ZM10.9375 24.6094L32.8125 36.5805V60.0387L10.9375 48.0758V24.6094ZM37.1875 60.0387V36.5914L59.0625 24.6094V48.0649L37.1875 60.0387Z" fill="#693CEA"/>
</svg>
