<svg width="70" height="70" viewBox="0 0 70 70" fill="none" xmlns="http://www.w3.org/2000/svg">
<g clip-path="url(#clip0_106_638)">
<path d="M26.25 17.5C26.25 19.8206 27.1719 22.0462 28.8128 23.6872C30.4538 25.3281 32.6794 26.25 35 26.25C37.3206 26.25 39.5462 25.3281 41.1872 23.6872C42.8281 22.0462 43.75 19.8206 43.75 17.5C43.75 15.1794 42.8281 12.9538 41.1872 11.3128C39.5462 9.67187 37.3206 8.75 35 8.75C32.6794 8.75 30.4538 9.67187 28.8128 11.3128C27.1719 12.9538 26.25 15.1794 26.25 17.5Z" stroke="#693CEA" stroke-width="6" stroke-linecap="round" stroke-linejoin="round"/>
<path d="M19.9355 26.25H50.0646C50.7477 26.2499 51.4091 26.4895 51.9336 26.9271C52.4581 27.3647 52.8124 27.9725 52.9346 28.6446L57.7092 54.8946C57.7857 55.315 57.7689 55.747 57.66 56.1602C57.551 56.5733 57.3527 56.9575 57.0789 57.2855C56.8051 57.6136 56.4626 57.8775 56.0756 58.0585C55.6886 58.2396 55.2665 58.3334 54.8392 58.3333H15.1609C14.7336 58.3334 14.3115 58.2396 13.9245 58.0585C13.5375 57.8775 13.195 57.6136 12.9212 57.2855C12.6474 56.9575 12.449 56.5733 12.3401 56.1602C12.2312 55.747 12.2144 55.315 12.2909 54.8946L17.0655 28.6446C17.1877 27.9725 17.542 27.3647 18.0665 26.9271C18.591 26.4895 19.2524 26.2499 19.9355 26.25Z" fill="#693CEA" fill-opacity="0.2" stroke="#693CEA" stroke-width="6" stroke-linecap="round" stroke-linejoin="round"/>
</g>
<defs>
<clipPath id="clip0_106_638">
<rect width="70" height="70" fill="white"/>
</clipPath>
</defs>
</svg>
