<svg width="70" height="70" viewBox="0 0 70 70" fill="none" xmlns="http://www.w3.org/2000/svg">
<path opacity="0.2" d="M59.0625 19.6875V56.875C59.0625 57.4552 58.832 58.0116 58.4218 58.4218C58.0116 58.832 57.4552 59.0625 56.875 59.0625H13.125C12.5448 59.0625 11.9884 58.832 11.5782 58.4218C11.168 58.0116 10.9375 57.4552 10.9375 56.875V19.6875H59.0625Z" fill="#693CEA"/>
<path d="M61.0203 18.7086L56.6453 9.95859C56.4635 9.59516 56.1839 9.28958 55.8381 9.07611C55.4923 8.86263 55.0939 8.74971 54.6875 8.75H15.3125C14.9061 8.74971 14.5077 8.86263 14.1619 9.07611C13.8161 9.28958 13.5365 9.59516 13.3547 9.95859L8.97969 18.7086C8.82891 19.0129 8.75031 19.3479 8.75 19.6875V56.875C8.75 58.0353 9.21094 59.1481 10.0314 59.9686C10.8519 60.7891 11.9647 61.25 13.125 61.25H56.875C58.0353 61.25 59.1481 60.7891 59.9686 59.9686C60.7891 59.1481 61.25 58.0353 61.25 56.875V19.6875C61.2497 19.3479 61.1711 19.0129 61.0203 18.7086ZM16.6633 13.125H53.3367L55.5242 17.5H14.4758L16.6633 13.125ZM56.875 56.875H13.125V21.875H56.875V56.875Z" fill="#693CEA"/>
<path d="M36.3492 28.6036C36.0836 28.7137 35.8424 28.8751 35.6392 29.0784C35.4358 29.2816 35.2745 29.5229 35.1644 29.7884C35.0543 30.054 34.9977 30.3386 34.9977 30.6261C34.9977 30.9136 35.0543 31.1982 35.1644 31.4638C35.2745 31.7293 35.4358 31.9706 35.6392 32.1738L40.6568 37.1886L24.0619 37.1886C23.4817 37.1886 22.9253 37.4191 22.5151 37.8293C22.1049 38.2395 21.8744 38.7959 21.8744 39.3761C21.8744 39.9563 22.1049 40.5127 22.5151 40.9229C22.9253 41.3331 23.4817 41.5636 24.0619 41.5636L40.6568 41.5636L35.6392 46.5784C35.2288 46.9889 34.9982 47.5456 34.9982 48.1261C34.9982 48.7066 35.2288 49.2633 35.6392 49.6738C36.0497 50.0842 36.6064 50.3148 37.1869 50.3148C37.7674 50.3148 38.3241 50.0842 38.7345 49.6738L47.4845 40.9238C47.6879 40.7206 47.8493 40.4793 47.9594 40.2138C48.0695 39.9482 48.1261 39.6636 48.1261 39.3761C48.1261 39.0886 48.0695 38.804 47.9594 38.5384C47.8493 38.2729 47.6879 38.0316 47.4845 37.8284L38.7345 29.0784C38.5314 28.8751 38.2901 28.7137 38.0246 28.6036C37.759 28.4935 37.4744 28.4369 37.1869 28.4369C36.8994 28.4369 36.6148 28.4935 36.3492 28.6036Z" fill="#693CEA"/>
</svg>
