<svg width="24" height="24" viewBox="0 0 24 24" fill="none" xmlns="http://www.w3.org/2000/svg">
<g id="Frame">
<g id="Group 45">
<path id="Vector" opacity="0.4" d="M1.83733 16.2095C1.28452 14.8749 1 13.4445 1 12C1 10.5555 1.28452 9.12506 1.83733 7.79048C2.39013 6.4559 3.20038 5.24327 4.22183 4.22183C5.24327 3.20038 6.4559 2.39013 7.79048 1.83733C9.12506 1.28452 10.5555 1 12 1C13.4445 1 14.8749 1.28452 16.2095 1.83733C17.5441 2.39013 18.7567 3.20038 19.7782 4.22183C20.7996 5.24327 21.6099 6.4559 22.1627 7.79048C22.7155 9.12506 23 10.5555 23 12C23 13.4445 22.7155 14.8749 22.1627 16.2095" stroke="#693CEA" stroke-width="2" stroke-linecap="round" stroke-linejoin="round"/>
<path id="Vector_2" d="M4.82611 20.1224C5.13052 19.0184 5.7534 18.0508 6.60237 17.363C7.45133 16.6753 8.48114 16.304 9.53903 16.3044H14.4586C15.5178 16.304 16.5489 16.6761 17.3985 17.3655C18.248 18.0548 18.8707 19.0245 19.1739 20.1304" stroke="#693CEA" stroke-width="2" stroke-linecap="round" stroke-linejoin="round"/>
<path id="Vector_3" d="M8.65216 9.13042C8.65216 10.0183 9.00488 10.8699 9.63272 11.4977C10.2606 12.1255 11.1121 12.4782 12 12.4782C12.8879 12.4782 13.7394 12.1255 14.3673 11.4977C14.9951 10.8699 15.3478 10.0183 15.3478 9.13042C15.3478 8.24252 14.9951 7.39099 14.3673 6.76315C13.7394 6.13531 12.8879 5.78259 12 5.78259C11.1121 5.78259 10.2606 6.13531 9.63272 6.76315C9.00488 7.39099 8.65216 8.24252 8.65216 9.13042Z" stroke="#693CEA" stroke-width="2" stroke-linecap="round" stroke-linejoin="round"/>
</g>
</g>
</svg>
