<svg width="160" height="41" viewBox="0 0 160 41" fill="none" xmlns="http://www.w3.org/2000/svg">
<path d="M20.4735 0C9.16347 0 0 9.16347 0 20.4735C0 31.7835 9.16347 40.947 20.4735 40.947C31.7835 40.947 40.947 31.7835 40.947 20.4735C40.947 9.16347 31.7835 0 20.4735 0ZM8.87486 28.212L11.6167 12.7351H15.549L12.8253 28.212H8.87486ZM19.0304 27.4002C19.0304 27.8512 18.6697 28.23 18.2007 28.23H15.9098C15.4588 28.23 15.08 27.8692 15.08 27.4002V25.1094C15.08 24.6404 15.4408 24.2796 15.9098 24.2796H18.2007C18.6516 24.2796 19.0304 24.6404 19.0304 25.1094V27.4002ZM24.929 28.212H20.9966L23.7204 12.7351H27.6708L24.929 28.212ZM33.1003 15.8557C33.1003 16.3067 32.7396 16.6855 32.2706 16.6855H29.9797C29.5287 16.6855 29.1499 16.3247 29.1499 15.8557V13.5468C29.168 13.0958 29.5287 12.7351 29.9797 12.7351H32.2706C32.7215 12.7351 33.1003 13.0958 33.1003 13.5648V15.8557Z" fill="white"/>
<path d="M47.7114 27.2919V13.9075H50.5434V24.965H56.2796V27.2919H47.7114Z" fill="white"/>
<path d="M64.5412 23.0169V17.2446H67.3191V27.292H64.6494V25.4701H64.5412C64.3067 26.0654 63.9459 26.5344 63.4047 26.8951C62.8816 27.2559 62.2322 27.4363 61.4927 27.4363C60.8253 27.4363 60.23 27.292 59.7249 26.9853C59.2198 26.6787 58.823 26.2458 58.5344 25.6866C58.2458 25.1274 58.1015 24.46 58.1015 23.6663V17.2627H60.8794V23.1612C60.8794 23.7565 61.0417 24.2255 61.3484 24.5682C61.655 24.9109 62.0879 25.0913 62.6111 25.0913C62.9538 25.0913 63.2604 25.0192 63.549 24.8568C63.8377 24.6945 64.0722 24.478 64.2525 24.1713C64.469 23.8467 64.5412 23.4679 64.5412 23.0169Z" fill="white"/>
<path d="M70.9448 15.9639C70.5299 15.9639 70.1692 15.8196 69.8806 15.549C69.5919 15.2784 69.4476 14.9357 69.4476 14.5569C69.4476 14.1781 69.5919 13.8354 69.8806 13.5648C70.1692 13.2942 70.5299 13.1499 70.9448 13.1499C71.3597 13.1499 71.7205 13.2942 72.0091 13.5648C72.2977 13.8354 72.442 14.1781 72.442 14.5569C72.442 14.9537 72.2977 15.2784 72.0091 15.549C71.7205 15.8196 71.3597 15.9639 70.9448 15.9639ZM69.5559 27.292V17.2626H72.3338V27.31L69.5559 27.292Z" fill="white"/>
<path d="M74.4983 27.292V25.6325L79.4047 19.5536V19.4814H74.6787V17.2627H82.7779V19.0665L78.1601 25.0011V25.0733H82.9402V27.292H74.4983Z" fill="white"/>
<path d="M89.3979 27.2919V13.9075H94.6832C95.6933 13.9075 96.5592 14.0879 97.2807 14.4486C98.0022 14.8094 98.5434 15.3145 98.9222 15.9638C99.301 16.6132 99.4814 17.3889 99.4814 18.2727C99.4814 19.1566 99.283 19.9323 98.9041 20.5636C98.5253 21.195 97.9662 21.7 97.2446 22.0247C96.5231 22.3674 95.6392 22.5298 94.611 22.5298H91.0755V20.257H94.1601C94.7012 20.257 95.1522 20.1848 95.5129 20.0405C95.8737 19.8962 96.1443 19.6617 96.3066 19.3731C96.487 19.0845 96.5772 18.7057 96.5772 18.2727C96.5772 17.8218 96.487 17.461 96.3066 17.1544C96.1263 16.8477 95.8557 16.6132 95.4949 16.4509C95.1341 16.2885 94.6832 16.2164 94.142 16.2164H92.23V27.2919H89.3979ZM96.6313 21.195L99.9504 27.2919H96.8297L93.5828 21.195H96.6313Z" fill="white"/>
<path d="M102.837 15.9639C102.422 15.9639 102.061 15.8196 101.772 15.549C101.484 15.2784 101.339 14.9357 101.339 14.5569C101.339 14.1781 101.484 13.8354 101.772 13.5648C102.061 13.2942 102.422 13.1499 102.837 13.1499C103.251 13.1499 103.612 13.2942 103.901 13.5648C104.189 13.8354 104.334 14.1781 104.334 14.5569C104.334 14.9537 104.189 15.2784 103.901 15.549C103.594 15.8196 103.251 15.9639 102.837 15.9639ZM101.43 27.292V17.2626H104.207V27.31L101.43 27.292Z" fill="white"/>
<path d="M110.972 27.4904C109.944 27.4904 109.06 27.2739 108.32 26.841C107.581 26.4081 107.021 25.7948 106.625 25.0191C106.228 24.2435 106.029 23.3416 106.029 22.3314C106.029 21.3032 106.228 20.4013 106.625 19.6257C107.021 18.85 107.599 18.2367 108.32 17.8038C109.042 17.3709 109.926 17.1544 110.954 17.1544C111.838 17.1544 112.595 17.3168 113.263 17.6234C113.912 17.9481 114.435 18.381 114.832 18.9583C115.211 19.5355 115.427 20.2029 115.463 20.9785H112.83C112.758 20.4735 112.559 20.0766 112.253 19.77C111.928 19.4633 111.531 19.301 111.008 19.301C110.575 19.301 110.196 19.4092 109.89 19.6437C109.565 19.8782 109.312 20.2209 109.15 20.6539C108.97 21.1048 108.879 21.6279 108.879 22.2773C108.879 22.9267 108.97 23.4678 109.15 23.9188C109.33 24.3698 109.583 24.7125 109.89 24.947C110.214 25.1815 110.593 25.3077 111.026 25.3077C111.351 25.3077 111.639 25.2356 111.892 25.1093C112.144 24.9831 112.361 24.7846 112.523 24.5321C112.686 24.2796 112.794 23.9729 112.848 23.6302H115.481C115.445 24.4058 115.229 25.0732 114.85 25.6505C114.471 26.2277 113.966 26.6787 113.317 27.0214C112.631 27.328 111.874 27.4904 110.972 27.4904Z" fill="white"/>
<path d="M120.117 27.4904C119.468 27.4904 118.909 27.3822 118.404 27.1477C117.899 26.9132 117.502 26.5885 117.213 26.1556C116.924 25.7046 116.78 25.1635 116.78 24.4961C116.78 23.9369 116.888 23.4679 117.087 23.0891C117.285 22.7103 117.574 22.4036 117.917 22.1691C118.277 21.9346 118.674 21.7723 119.125 21.646C119.576 21.5197 120.045 21.4476 120.55 21.3935C121.127 21.3393 121.596 21.2672 121.957 21.2131C122.318 21.159 122.57 21.0688 122.733 20.9605C122.895 20.8523 122.967 20.69 122.967 20.4735V20.4374C122.967 20.0226 122.841 19.6979 122.57 19.4814C122.318 19.2469 121.939 19.1387 121.47 19.1387C120.965 19.1387 120.568 19.2469 120.28 19.4634C119.991 19.6798 119.793 19.9504 119.684 20.2931L117.105 20.0767C117.231 19.4634 117.484 18.9403 117.88 18.4893C118.259 18.0383 118.764 17.6956 119.36 17.4611C119.955 17.2266 120.676 17.1003 121.47 17.1003C122.029 17.1003 122.57 17.1725 123.076 17.2988C123.581 17.425 124.05 17.6235 124.446 17.9121C124.843 18.1826 125.168 18.5434 125.384 18.9763C125.619 19.4092 125.727 19.9143 125.727 20.5096V27.274H123.094V25.885H123.021C122.859 26.1917 122.643 26.4803 122.372 26.7148C122.101 26.9493 121.777 27.1297 121.398 27.274C121.037 27.4183 120.604 27.4904 120.117 27.4904ZM120.911 25.5603C121.326 25.5603 121.687 25.4701 121.993 25.3078C122.3 25.1454 122.552 24.929 122.733 24.6404C122.913 24.3698 123.003 24.0451 123.003 23.6843V22.6201C122.913 22.6742 122.805 22.7283 122.643 22.7824C122.498 22.8365 122.318 22.8726 122.138 22.9087C121.957 22.9448 121.759 22.9808 121.578 22.9989C121.398 23.035 121.218 23.053 121.073 23.071C120.749 23.1251 120.46 23.1973 120.225 23.3055C119.973 23.4138 119.793 23.5581 119.648 23.7204C119.504 23.9008 119.45 24.1173 119.45 24.3698C119.45 24.7486 119.594 25.0372 119.865 25.2356C120.135 25.434 120.478 25.5603 120.911 25.5603Z" fill="white"/>
<path d="M128.938 27.292V17.2627H131.644V19.0124H131.752C131.932 18.3811 132.239 17.9121 132.672 17.6054C133.105 17.2988 133.592 17.1184 134.169 17.1184C134.313 17.1184 134.458 17.1184 134.62 17.1364C134.782 17.1545 134.927 17.1725 135.053 17.2086V19.6799C134.927 19.6438 134.746 19.6077 134.512 19.5716C134.277 19.5355 134.061 19.5175 133.88 19.5175C133.466 19.5175 133.105 19.6077 132.78 19.7881C132.455 19.9685 132.203 20.203 132.023 20.5277C131.842 20.8343 131.752 21.1951 131.752 21.61V27.292H128.938Z" fill="white"/>
<path d="M139.689 27.4544C138.931 27.4544 138.228 27.256 137.614 26.8591C137.001 26.4623 136.514 25.885 136.153 25.1094C135.793 24.3337 135.612 23.3958 135.612 22.2774C135.612 21.1229 135.793 20.1669 136.171 19.4093C136.55 18.6517 137.037 18.0744 137.651 17.6956C138.264 17.3168 138.949 17.1184 139.689 17.1184C140.248 17.1184 140.717 17.2086 141.096 17.407C141.475 17.6055 141.781 17.8399 142.016 18.1105C142.25 18.3991 142.431 18.6697 142.557 18.9403H142.647V13.9076H145.425V27.292H142.683V25.6866H142.557C142.431 25.9572 142.25 26.2458 141.998 26.5164C141.745 26.787 141.457 27.0215 141.078 27.2018C140.699 27.3642 140.23 27.4544 139.689 27.4544ZM140.573 25.2357C141.024 25.2357 141.402 25.1094 141.709 24.8749C142.016 24.6224 142.268 24.2796 142.431 23.8467C142.593 23.4138 142.683 22.8726 142.683 22.2774C142.683 21.6821 142.593 21.159 142.431 20.7261C142.268 20.2932 142.034 19.9504 141.709 19.6979C141.402 19.4634 141.006 19.3371 140.573 19.3371C140.122 19.3371 139.725 19.4634 139.418 19.7159C139.112 19.9685 138.859 20.3112 138.697 20.7441C138.534 21.177 138.462 21.7002 138.462 22.2774C138.462 22.8546 138.552 23.3777 138.715 23.8287C138.877 24.2796 139.112 24.6224 139.418 24.8749C139.743 25.1094 140.122 25.2357 140.573 25.2357Z" fill="white"/>
<path d="M152.225 27.4904C151.215 27.4904 150.331 27.274 149.592 26.8411C148.852 26.4081 148.275 25.7948 147.878 25.0192C147.481 24.2435 147.283 23.3416 147.283 22.3134C147.283 21.2853 147.481 20.3653 147.878 19.5897C148.275 18.814 148.852 18.2007 149.592 17.7678C150.331 17.3349 151.215 17.1184 152.225 17.1184C153.236 17.1184 154.119 17.3349 154.859 17.7678C155.599 18.2007 156.176 18.814 156.573 19.5897C156.97 20.3653 157.168 21.2672 157.168 22.3134C157.168 23.3416 156.97 24.2435 156.573 25.0192C156.176 25.7948 155.599 26.4081 154.859 26.8411C154.119 27.274 153.236 27.4904 152.225 27.4904ZM152.244 25.3258C152.712 25.3258 153.091 25.1996 153.398 24.929C153.705 24.6584 153.939 24.2977 154.101 23.8467C154.264 23.3957 154.336 22.8726 154.336 22.2774C154.336 21.7001 154.264 21.177 154.101 20.708C153.939 20.2571 153.705 19.8963 153.398 19.6257C153.091 19.3552 152.694 19.2289 152.244 19.2289C151.775 19.2289 151.378 19.3552 151.071 19.6257C150.746 19.8963 150.512 20.2571 150.349 20.708C150.187 21.159 150.115 21.6821 150.115 22.2774C150.115 22.8546 150.187 23.3777 150.349 23.8467C150.512 24.2977 150.746 24.6584 151.071 24.929C151.378 25.1996 151.775 25.3258 152.244 25.3258Z" fill="white"/>
<path d="M158.413 16.9921C158.196 16.9921 157.998 16.9561 157.799 16.8659C157.601 16.7757 157.439 16.6674 157.294 16.5231C157.15 16.3788 157.042 16.2165 156.952 16.0181C156.879 15.8377 156.825 15.6212 156.825 15.4048C156.825 15.1883 156.861 14.9899 156.952 14.7915C157.042 14.593 157.15 14.4307 157.294 14.2864C157.439 14.1421 157.601 14.0338 157.799 13.9437C157.998 13.8535 158.196 13.8174 158.413 13.8174C158.629 13.8174 158.828 13.8535 159.026 13.9437C159.224 14.0338 159.387 14.1421 159.531 14.2864C159.675 14.4307 159.784 14.593 159.874 14.7915C159.964 14.9899 160 15.1883 160 15.4048C160 15.6212 159.964 15.8196 159.874 16.0181C159.802 16.2165 159.675 16.3788 159.531 16.5231C159.387 16.6674 159.224 16.7757 159.026 16.8659C158.828 16.9561 158.629 16.9921 158.413 16.9921ZM158.413 16.6133C158.629 16.6133 158.828 16.5592 159.008 16.451C159.188 16.3427 159.333 16.1984 159.441 16.0181C159.549 15.8377 159.603 15.6393 159.603 15.4228C159.603 15.2063 159.549 15.0079 159.441 14.8275C159.333 14.6471 159.188 14.5028 159.008 14.3946C158.828 14.2864 158.629 14.2323 158.413 14.2323C158.196 14.2323 157.998 14.2864 157.817 14.3946C157.637 14.5028 157.493 14.6471 157.384 14.8275C157.276 15.0079 157.222 15.2063 157.222 15.4228C157.222 15.6393 157.276 15.8377 157.384 16.0181C157.493 16.1984 157.637 16.3427 157.817 16.451C157.998 16.5592 158.196 16.6133 158.413 16.6133ZM157.871 16.1263V14.6832H158.611C158.665 14.6832 158.737 14.7013 158.809 14.7373C158.882 14.7734 158.936 14.8275 158.99 14.8816C159.044 14.9538 159.062 15.044 159.062 15.1342C159.062 15.2424 159.044 15.3326 158.99 15.4048C158.936 15.4769 158.882 15.531 158.809 15.5671C158.737 15.6032 158.665 15.6212 158.611 15.6212H158.088V15.3867H158.521C158.557 15.3867 158.611 15.3687 158.665 15.3146C158.719 15.2785 158.737 15.2063 158.737 15.1161C158.737 15.026 158.719 14.9718 158.665 14.9358C158.611 14.8997 158.575 14.8816 158.539 14.8816H158.196V16.0902H157.871V16.1263ZM158.737 15.4408L159.098 16.1263H158.755L158.395 15.4408H158.737Z" fill="white"/>
</svg>
