<svg width="104" height="30" viewBox="0 0 104 30" fill="none" xmlns="http://www.w3.org/2000/svg">
<path d="M0 5.49393C0 2.45972 2.46109 0 5.497 0H8.9951V8.79029H0V5.49393Z" fill="#693CEA"/>
<path d="M15.3916 0H5.93677V8.79029H15.3916C17.8203 8.79029 19.7892 6.82251 19.7892 4.39514C19.7892 1.96777 17.8203 0 15.3916 0Z" fill="#693CEA"/>
<path d="M14.2922 8.79028H0V18.6794C0 21.7136 2.46109 24.1733 5.497 24.1733H14.2922C17.3281 24.1733 19.7892 21.7136 19.7892 18.6794V14.2842C19.7892 11.25 17.3281 8.79028 14.2922 8.79028Z" fill="#906DF2"/>
<path d="M24.4749 24.1733V5.11394L27.1991 4.59662V11.6213C28.3615 10.6049 29.7691 10.0966 31.4218 10.0966C32.7294 10.0966 33.91 10.4143 34.9634 11.0496C36.0349 11.6849 36.8794 12.538 37.4969 13.609C38.1145 14.6799 38.4232 15.887 38.4232 17.2302C38.4232 18.5735 38.1054 19.7896 37.4697 20.8787C36.8522 21.9497 36.0077 22.8028 34.9361 23.4381C33.8827 24.0735 32.6931 24.3911 31.3673 24.3911C30.6045 24.3911 29.8599 24.2731 29.1334 24.0372C28.4251 23.783 27.7712 23.4291 27.1719 22.9753V24.1733H24.4749ZM31.0676 22.0223C31.9576 22.0223 32.7476 21.8136 33.4378 21.3961C34.1461 20.9786 34.7091 20.4159 35.1268 19.708C35.5445 18.9819 35.7534 18.1651 35.7534 17.2575C35.7534 16.3499 35.5445 15.5331 35.1268 14.807C34.7091 14.0809 34.1461 13.5091 33.4378 13.0916C32.7476 12.6742 31.9576 12.4654 31.0676 12.4654C30.2867 12.4654 29.5602 12.6106 28.8882 12.901C28.2162 13.1915 27.6532 13.5999 27.1991 14.1263V20.3886C27.6532 20.8969 28.2162 21.2962 28.8882 21.5867C29.5784 21.8771 30.3048 22.0223 31.0676 22.0223Z" fill="white"/>
<path d="M41.5676 24.1733V10.3144H44.2919V24.1733H41.5676ZM42.9298 8.08176C42.4757 8.08176 42.0852 7.91839 41.7583 7.59166C41.4314 7.24678 41.268 6.84744 41.268 6.39364C41.268 5.9217 41.4314 5.53143 41.7583 5.22285C42.0852 4.89612 42.4757 4.73276 42.9298 4.73276C43.402 4.73276 43.8015 4.89612 44.1285 5.22285C44.4554 5.53143 44.6188 5.9217 44.6188 6.39364C44.6188 6.84744 44.4554 7.24678 44.1285 7.59166C43.8015 7.91839 43.402 8.08176 42.9298 8.08176Z" fill="white"/>
<path d="M47.228 24.1733V22.1584L55.0194 12.656H47.3097V10.3144H58.4248V12.302L50.6333 21.8317H58.561V24.1733H47.228Z" fill="white"/>
<path d="M60.8622 24.1733V22.1584L68.6536 12.656H60.9439V10.3144H72.059V12.302L64.2675 21.8317H72.1952V24.1733H60.8622Z" fill="white"/>
<path d="M81.6734 30C80.6563 30 79.6665 29.882 78.7039 29.646C77.7413 29.4101 76.8696 29.0743 76.0886 28.6386L77.1238 26.5149C77.9411 26.9324 78.7039 27.2319 79.4122 27.4134C80.1387 27.6131 80.8652 27.7129 81.5917 27.7129C82.8085 27.7129 83.7257 27.4315 84.3432 26.8688C84.9789 26.3061 85.2967 25.4802 85.2967 24.3911V22.8119C84.0798 23.774 82.6905 24.255 81.1285 24.255C79.8572 24.255 78.6858 23.9464 77.6142 23.3292C76.5608 22.6939 75.7254 21.8408 75.1079 20.7698C74.4904 19.6807 74.1816 18.4827 74.1816 17.1758C74.1816 15.8507 74.4904 14.6527 75.1079 13.5817C75.7435 12.4926 76.5881 11.6395 77.6414 11.0223C78.713 10.387 79.9117 10.0694 81.2375 10.0694C81.9821 10.0694 82.6995 10.1964 83.3897 10.4506C84.098 10.6865 84.7428 11.0314 85.3239 11.4852V10.3144H88.021V24.3911C88.021 26.1881 87.467 27.5677 86.3592 28.5297C85.2694 29.5099 83.7075 30 81.6734 30ZM81.4827 21.9134C82.2818 21.9134 83.0083 21.7773 83.6621 21.505C84.3159 21.2146 84.8608 20.8061 85.2967 20.2797V14.0718C84.8608 13.5636 84.3069 13.1642 83.6349 12.8738C82.9811 12.5834 82.2636 12.4382 81.4827 12.4382C80.6109 12.4382 79.8209 12.6469 79.1126 13.0644C78.4224 13.4819 77.8685 14.0537 77.4507 14.7798C77.0512 15.4877 76.8514 16.2864 76.8514 17.1758C76.8514 18.0652 77.0512 18.873 77.4507 19.599C77.8685 20.307 78.4224 20.8697 79.1126 21.2872C79.8209 21.7047 80.6109 21.9134 81.4827 21.9134Z" fill="white"/>
<path d="M97.1348 24.4456C96.0632 24.4456 95.1188 24.2187 94.3015 23.7649C93.4842 23.3111 92.8486 22.6758 92.3945 21.8589C91.9405 21.024 91.7135 20.071 91.7135 19V10.3144H94.4105V18.5372C94.4105 19.6263 94.7193 20.4885 95.3368 21.1238C95.9724 21.7591 96.817 22.0768 97.8703 22.0768C98.615 22.0768 99.2779 21.9225 99.8591 21.6139C100.44 21.2872 100.912 20.8334 101.276 20.2525V10.3144H104V24.1733H101.276V22.7575C100.204 23.8829 98.8238 24.4456 97.1348 24.4456Z" fill="white"/>
<mask id="path-4-inside-1_134_59" fill="white">
<path d="M3.73798 13.1854C3.73798 14.8174 4.38662 16.3824 5.54121 17.5364C6.69581 18.6903 8.26177 19.3386 9.89462 19.3386C11.5275 19.3386 13.0934 18.6903 14.248 17.5364C15.4026 16.3824 16.0513 14.8174 16.0513 13.1854L13.8964 13.1854C13.8964 14.2462 13.4748 15.2635 12.7243 16.0136C11.9738 16.7636 10.956 17.185 9.89462 17.185C8.83327 17.185 7.81539 16.7636 7.06491 16.0136C6.31442 15.2635 5.8928 14.2462 5.8928 13.1854L3.73798 13.1854Z"/>
</mask>
<path d="M3.73798 13.1854L3.73798 3.18542L-6.26202 3.18542L-6.26202 13.1854L3.73798 13.1854ZM16.0513 13.1854L26.0513 13.1854L26.0513 3.18543L16.0513 3.18543L16.0513 13.1854ZM13.8964 13.1854L13.8964 3.18543L3.89644 3.18542L3.89644 13.1854L13.8964 13.1854ZM5.8928 13.1854L15.8928 13.1854L15.8928 3.18543L5.8928 3.18542L5.8928 13.1854ZM-6.26202 13.1854C-6.26202 17.4713 -4.55845 21.5806 -1.52788 24.6094L12.6103 10.4634C13.3317 11.1843 13.738 12.1634 13.738 13.1854L-6.26202 13.1854ZM-1.52788 24.6094C1.50251 27.6381 5.61141 29.3386 9.89462 29.3386L9.89462 9.33863C10.9121 9.33863 11.8891 9.74255 12.6103 10.4634L-1.52788 24.6094ZM9.89462 29.3386C14.1778 29.3386 18.2867 27.6381 21.3171 24.6094L7.17893 10.4634C7.90013 9.74256 8.8771 9.33863 9.89462 9.33863L9.89462 29.3386ZM21.3171 24.6094C24.3477 21.5806 26.0513 17.4713 26.0513 13.1854L6.05126 13.1854C6.05126 12.1634 6.45755 11.1843 7.17893 10.4634L21.3171 24.6094ZM16.0513 3.18543H13.8964L13.8964 23.1854H16.0513L16.0513 3.18543ZM3.89644 13.1854C3.89644 11.5922 4.52974 10.0654 5.65524 8.94051L19.7934 23.0866C22.4199 20.4616 23.8964 16.9002 23.8964 13.1854L3.89644 13.1854ZM5.65524 8.94051C6.78055 7.81583 8.30561 7.18501 9.89462 7.18501L9.89462 27.185C13.6063 27.185 17.1671 25.7114 19.7934 23.0866L5.65524 8.94051ZM9.89462 7.18501C11.4836 7.18501 13.0087 7.81583 14.134 8.94051L-0.00418544 23.0866C2.62209 25.7114 6.18291 27.185 9.89462 27.185L9.89462 7.18501ZM14.134 8.94051C15.2595 10.0654 15.8928 11.5922 15.8928 13.1854L-4.1072 13.1854C-4.1072 16.9001 -2.63065 20.4616 -0.00418544 23.0866L14.134 8.94051ZM5.8928 3.18542H3.73798L3.73798 23.1854H5.8928L5.8928 3.18542Z" fill="white" mask="url(#path-4-inside-1_134_59)"/>
</svg>
